# Blender v2.91.2 OBJ File: 'torus.blend'
# www.blender.org
mtllib TQuater4.mtl
o Torus
v 1.250000 0.000000 0.000000
v 1.216506 0.125000 0.000000
v 1.125000 0.216506 0.000000
v 1.000000 0.250000 0.000000
v 0.875000 0.216506 0.000000
v 0.783494 0.125000 0.000000
v 0.750000 0.000000 0.000000
v 0.783494 -0.125000 0.000000
v 0.875000 -0.216506 0.000000
v 1.000000 -0.250000 0.000000
v 1.125000 -0.216506 0.000000
v 1.216506 -0.125000 0.000000
v 0.000000 0.000000 1.250000
v 0.000000 0.125000 1.216506
v 0.000000 0.216506 1.125000
v 0.000000 0.250000 1.000000
v 0.000000 0.216506 0.875000
v 0.000000 0.125000 0.783494
v 0.000000 0.000000 0.750000
v 0.000000 -0.125000 0.783494
v 0.000000 -0.216506 0.875000
v 0.000000 -0.250000 1.000000
v 0.000000 -0.216506 1.125000
v 0.000000 -0.125000 1.216506
v 0.163158 0.000000 1.239306
v 0.158786 0.125000 1.206099
v 0.146842 0.216506 1.115376
v 0.130526 0.250000 0.991445
v 0.114210 0.216506 0.867514
v 0.102266 0.125000 0.776791
v 0.097895 0.000000 0.743584
v 0.102266 -0.125000 0.776791
v 0.114210 -0.216506 0.867514
v 0.130526 -0.250000 0.991445
v 0.146842 -0.216506 1.115376
v 0.158786 -0.125000 1.206099
v 0.323523 0.000000 1.207407
v 0.314854 0.125000 1.175055
v 0.291171 0.216506 1.086667
v 0.258819 0.250000 0.965926
v 0.226466 0.216506 0.845185
v 0.202783 0.125000 0.756797
v 0.194114 0.000000 0.724444
v 0.202783 -0.125000 0.756797
v 0.226466 -0.216506 0.845185
v 0.258819 -0.250000 0.965926
v 0.291171 -0.216506 1.086667
v 0.314854 -0.125000 1.175055
v 0.478355 0.000000 1.154849
v 0.465537 0.125000 1.123905
v 0.430519 0.216506 1.039364
v 0.382684 0.250000 0.923879
v 0.334848 0.216506 0.808394
v 0.299830 0.125000 0.723854
v 0.287013 0.000000 0.692910
v 0.299830 -0.125000 0.723854
v 0.334848 -0.216506 0.808394
v 0.382684 -0.250000 0.923879
v 0.430519 -0.216506 1.039364
v 0.465537 -0.125000 1.123905
v 0.625000 0.000000 1.082532
v 0.608253 0.125000 1.053525
v 0.562500 0.216506 0.974279
v 0.500000 0.250000 0.866025
v 0.437500 0.216506 0.757772
v 0.391747 0.125000 0.678525
v 0.375000 0.000000 0.649519
v 0.391747 -0.125000 0.678525
v 0.437500 -0.216506 0.757772
v 0.500000 -0.250000 0.866025
v 0.562500 -0.216506 0.974279
v 0.608253 -0.125000 1.053525
v 0.760952 0.000000 0.991692
v 0.740562 0.125000 0.965120
v 0.684856 0.216506 0.892523
v 0.608761 0.250000 0.793353
v 0.532666 0.216506 0.694184
v 0.476961 0.125000 0.621587
v 0.456571 0.000000 0.595015
v 0.476961 -0.125000 0.621587
v 0.532666 -0.216506 0.694184
v 0.608761 -0.250000 0.793353
v 0.684856 -0.216506 0.892523
v 0.740562 -0.125000 0.965120
v 0.883883 0.000000 0.883884
v 0.860199 0.125000 0.860200
v 0.795495 0.216506 0.795496
v 0.707106 0.250000 0.707107
v 0.618718 0.216506 0.618719
v 0.554013 0.125000 0.554014
v 0.530330 0.000000 0.530330
v 0.554013 -0.125000 0.554014
v 0.618718 -0.216506 0.618719
v 0.707106 -0.250000 0.707107
v 0.795495 -0.216506 0.795496
v 0.860199 -0.125000 0.860200
v 0.991692 0.000000 0.760952
v 0.965119 0.125000 0.740562
v 0.892523 0.216506 0.684856
v 0.793353 0.250000 0.608761
v 0.694184 0.216506 0.532666
v 0.621587 0.125000 0.476961
v 0.595015 0.000000 0.456571
v 0.621587 -0.125000 0.476961
v 0.694184 -0.216506 0.532666
v 0.793353 -0.250000 0.608761
v 0.892523 -0.216506 0.684856
v 0.965119 -0.125000 0.740562
v 1.082532 0.000000 0.625000
v 1.053525 0.125000 0.608253
v 0.974279 0.216506 0.562500
v 0.866025 0.250000 0.500000
v 0.757772 0.216506 0.437500
v 0.678525 0.125000 0.391747
v 0.649519 0.000000 0.375000
v 0.678525 -0.125000 0.391747
v 0.757772 -0.216506 0.437500
v 0.866025 -0.250000 0.500000
v 0.974279 -0.216506 0.562500
v 1.053525 -0.125000 0.608253
v 1.154849 0.000000 0.478355
v 1.123905 0.125000 0.465537
v 1.039364 0.216506 0.430519
v 0.923879 0.250000 0.382684
v 0.808394 0.216506 0.334848
v 0.723854 0.125000 0.299830
v 0.692910 0.000000 0.287013
v 0.723854 -0.125000 0.299830
v 0.808394 -0.216506 0.334848
v 0.923879 -0.250000 0.382684
v 1.039364 -0.216506 0.430519
v 1.123905 -0.125000 0.465537
v 1.207407 0.000000 0.323523
v 1.175055 0.125000 0.314855
v 1.086667 0.216506 0.291171
v 0.965926 0.250000 0.258819
v 0.845185 0.216506 0.226466
v 0.756797 0.125000 0.202783
v 0.724444 0.000000 0.194114
v 0.756797 -0.125000 0.202783
v 0.845185 -0.216506 0.226466
v 0.965926 -0.250000 0.258819
v 1.086667 -0.216506 0.291171
v 1.175055 -0.125000 0.314855
v 1.239306 0.000000 0.163158
v 1.206099 0.125000 0.158786
v 1.115376 0.216506 0.146842
v 0.991445 0.250000 0.130526
v 0.867514 0.216506 0.114210
v 0.776791 0.125000 0.102266
v 0.743584 0.000000 0.097895
v 0.776791 -0.125000 0.102266
v 0.867514 -0.216506 0.114210
v 0.991445 -0.250000 0.130526
v 1.115376 -0.216506 0.146842
v 1.206099 -0.125000 0.158786
vt 0.250000 0.500000
vt 0.270833 0.500000
vt 0.270833 0.583333
vt 0.250000 0.583333
vt 0.270833 0.666667
vt 0.250000 0.666667
vt 0.270833 0.750000
vt 0.250000 0.750000
vt 0.270833 0.833333
vt 0.250000 0.833333
vt 0.270833 0.916667
vt 0.250000 0.916667
vt 0.270833 1.000000
vt 0.250000 1.000000
vt 0.250000 0.000000
vt 0.270833 0.000000
vt 0.270833 0.083333
vt 0.250000 0.083333
vt 0.270833 0.166667
vt 0.250000 0.166667
vt 0.270833 0.250000
vt 0.250000 0.250000
vt 0.270833 0.333333
vt 0.250000 0.333333
vt 0.270833 0.416667
vt 0.250000 0.416667
vt 0.291667 0.500000
vt 0.291667 0.583333
vt 0.291667 0.666667
vt 0.291667 0.750000
vt 0.291667 0.833333
vt 0.291667 0.916667
vt 0.291667 1.000000
vt 0.291667 0.000000
vt 0.291667 0.083333
vt 0.291667 0.166667
vt 0.291667 0.250000
vt 0.291667 0.333333
vt 0.291667 0.416667
vt 0.312500 0.500000
vt 0.312500 0.583333
vt 0.312500 0.666667
vt 0.312500 0.750000
vt 0.312500 0.833333
vt 0.312500 0.916667
vt 0.312500 1.000000
vt 0.312500 0.000000
vt 0.312500 0.083333
vt 0.312500 0.166667
vt 0.312500 0.250000
vt 0.312500 0.333333
vt 0.312500 0.416667
vt 0.333333 0.500000
vt 0.333333 0.583333
vt 0.333333 0.666667
vt 0.333333 0.750000
vt 0.333333 0.833333
vt 0.333333 0.916667
vt 0.333333 1.000000
vt 0.333333 0.000000
vt 0.333333 0.083333
vt 0.333333 0.166667
vt 0.333333 0.250000
vt 0.333333 0.333333
vt 0.333333 0.416667
vt 0.354167 0.500000
vt 0.354167 0.583333
vt 0.354167 0.666667
vt 0.354167 0.750000
vt 0.354167 0.833333
vt 0.354167 0.916667
vt 0.354167 1.000000
vt 0.354167 0.000000
vt 0.354167 0.083333
vt 0.354167 0.166667
vt 0.354167 0.250000
vt 0.354167 0.333333
vt 0.354167 0.416667
vt 0.375000 0.500000
vt 0.375000 0.583333
vt 0.375000 0.666667
vt 0.375000 0.750000
vt 0.375000 0.833333
vt 0.375000 0.916667
vt 0.375000 1.000000
vt 0.375000 0.000000
vt 0.375000 0.083333
vt 0.375000 0.166667
vt 0.375000 0.250000
vt 0.375000 0.333333
vt 0.375000 0.416667
vt 0.395833 0.500000
vt 0.395833 0.583333
vt 0.395833 0.666667
vt 0.395833 0.750000
vt 0.395833 0.833333
vt 0.395833 0.916667
vt 0.395833 1.000000
vt 0.395833 0.000000
vt 0.395833 0.083333
vt 0.395833 0.166667
vt 0.395833 0.250000
vt 0.395833 0.333333
vt 0.395833 0.416667
vt 0.416667 0.500000
vt 0.416667 0.583333
vt 0.416667 0.666667
vt 0.416667 0.750000
vt 0.416667 0.833333
vt 0.416667 0.916667
vt 0.416667 1.000000
vt 0.416667 0.000000
vt 0.416667 0.083333
vt 0.416667 0.166667
vt 0.416667 0.250000
vt 0.416667 0.333333
vt 0.416667 0.416667
vt 0.437500 0.500000
vt 0.437500 0.583333
vt 0.437500 0.666667
vt 0.437500 0.750000
vt 0.437500 0.833333
vt 0.437500 0.916667
vt 0.437500 1.000000
vt 0.437500 0.000000
vt 0.437500 0.083333
vt 0.437500 0.166667
vt 0.437500 0.250000
vt 0.437500 0.333333
vt 0.437500 0.416667
vt 0.458333 0.500000
vt 0.458333 0.583333
vt 0.458333 0.666667
vt 0.458333 0.750000
vt 0.458333 0.833333
vt 0.458333 0.916667
vt 0.458333 1.000000
vt 0.458333 0.000000
vt 0.458333 0.083333
vt 0.458333 0.166667
vt 0.458333 0.250000
vt 0.458333 0.333333
vt 0.458333 0.416667
vt 0.479167 0.500000
vt 0.479167 0.583333
vt 0.479167 0.666667
vt 0.479167 0.750000
vt 0.479167 0.833333
vt 0.479167 0.916667
vt 0.479167 1.000000
vt 0.479167 0.000000
vt 0.479167 0.083333
vt 0.479167 0.166667
vt 0.479167 0.250000
vt 0.479167 0.333333
vt 0.479167 0.416667
vt 0.500000 0.500000
vt 0.500000 0.583333
vt 0.500000 0.666667
vt 0.500000 0.750000
vt 0.500000 0.833333
vt 0.500000 0.916667
vt 0.500000 1.000000
vt 0.500000 0.000000
vt 0.500000 0.083333
vt 0.500000 0.166667
vt 0.500000 0.250000
vt 0.500000 0.333333
vt 0.500000 0.416667
vn 0.0632 0.2583 0.9640
vn 0.0463 0.7063 0.7063
vn 0.0170 0.9658 0.2588
vn -0.0170 0.9658 -0.2588
vn -0.0463 0.7063 -0.7063
vn -0.0632 0.2583 -0.9640
vn -0.0632 -0.2583 -0.9640
vn -0.0463 -0.7063 -0.7063
vn -0.0170 -0.9658 -0.2588
vn 0.0170 -0.9658 0.2588
vn 0.0463 -0.7063 0.7063
vn 0.0632 -0.2583 0.9640
vn 0.1885 0.2583 0.9475
vn 0.1381 0.7063 0.6943
vn 0.0506 0.9658 0.2544
vn -0.0506 0.9658 -0.2544
vn -0.1381 0.7063 -0.6943
vn -0.1885 0.2583 -0.9475
vn -0.1885 -0.2583 -0.9475
vn -0.1381 -0.7063 -0.6943
vn -0.0506 -0.9658 -0.2544
vn 0.0506 -0.9658 0.2544
vn 0.1381 -0.7063 0.6943
vn 0.1885 -0.2583 0.9475
vn 0.3105 0.2583 0.9148
vn 0.2275 0.7063 0.6703
vn 0.0834 0.9658 0.2456
vn -0.0834 0.9658 -0.2456
vn -0.2275 0.7063 -0.6703
vn -0.3105 0.2583 -0.9148
vn -0.3105 -0.2583 -0.9148
vn -0.2275 -0.7063 -0.6703
vn -0.0834 -0.9658 -0.2456
vn 0.0834 -0.9658 0.2456
vn 0.2275 -0.7063 0.6703
vn 0.3105 -0.2583 0.9148
vn 0.4273 0.2583 0.8664
vn 0.3131 0.7063 0.6349
vn 0.1147 0.9658 0.2326
vn -0.1147 0.9658 -0.2326
vn -0.3131 0.7063 -0.6349
vn -0.4273 0.2583 -0.8664
vn -0.4273 -0.2583 -0.8664
vn -0.3131 -0.7063 -0.6349
vn -0.1147 -0.9658 -0.2326
vn 0.1147 -0.9658 0.2326
vn 0.3131 -0.7063 0.6349
vn 0.4273 -0.2583 0.8664
vn 0.5367 0.2583 0.8033
vn 0.3933 0.7063 0.5886
vn 0.1441 0.9658 0.2156
vn -0.1441 0.9658 -0.2156
vn -0.3933 0.7063 -0.5886
vn -0.5367 0.2583 -0.8033
vn -0.5367 -0.2583 -0.8033
vn -0.3933 -0.7063 -0.5886
vn -0.1441 -0.9658 -0.2156
vn 0.1441 -0.9658 0.2156
vn 0.3933 -0.7063 0.5886
vn 0.5367 -0.2583 0.8033
vn 0.6370 0.2583 0.7263
vn 0.4667 0.7063 0.5322
vn 0.1710 0.9658 0.1950
vn -0.1710 0.9658 -0.1950
vn -0.4667 0.7063 -0.5322
vn -0.6370 0.2583 -0.7263
vn -0.6370 -0.2583 -0.7263
vn -0.4667 -0.7063 -0.5322
vn -0.1710 -0.9658 -0.1950
vn 0.1710 -0.9658 0.1950
vn 0.4667 -0.7063 0.5322
vn 0.6370 -0.2583 0.7263
vn 0.7263 0.2583 0.6370
vn 0.5322 0.7063 0.4667
vn 0.1950 0.9658 0.1710
vn -0.1950 0.9658 -0.1710
vn -0.5322 0.7063 -0.4667
vn -0.7263 0.2583 -0.6370
vn -0.7263 -0.2583 -0.6370
vn -0.5322 -0.7063 -0.4667
vn -0.1950 -0.9658 -0.1710
vn 0.1950 -0.9658 0.1710
vn 0.5322 -0.7063 0.4667
vn 0.7263 -0.2583 0.6370
vn 0.8033 0.2583 0.5367
vn 0.5886 0.7063 0.3933
vn 0.2156 0.9658 0.1441
vn -0.2156 0.9658 -0.1441
vn -0.5886 0.7063 -0.3933
vn -0.8033 0.2583 -0.5367
vn -0.8033 -0.2583 -0.5367
vn -0.5886 -0.7063 -0.3933
vn -0.2156 -0.9658 -0.1441
vn 0.2156 -0.9658 0.1441
vn 0.5886 -0.7063 0.3933
vn 0.8033 -0.2583 0.5367
vn 0.8664 0.2583 0.4273
vn 0.6349 0.7063 0.3131
vn 0.2326 0.9658 0.1147
vn -0.2326 0.9658 -0.1147
vn -0.6349 0.7063 -0.3131
vn -0.8664 0.2583 -0.4273
vn -0.8664 -0.2583 -0.4273
vn -0.6349 -0.7063 -0.3131
vn -0.2326 -0.9658 -0.1147
vn 0.2326 -0.9658 0.1147
vn 0.6349 -0.7063 0.3131
vn 0.8664 -0.2583 0.4273
vn 0.9148 0.2583 0.3105
vn 0.6703 0.7063 0.2275
vn 0.2456 0.9658 0.0834
vn -0.2456 0.9658 -0.0834
vn -0.6703 0.7063 -0.2275
vn -0.9148 0.2583 -0.3105
vn -0.9148 -0.2583 -0.3105
vn -0.6703 -0.7063 -0.2275
vn -0.2456 -0.9658 -0.0834
vn 0.2456 -0.9658 0.0834
vn 0.6703 -0.7063 0.2275
vn 0.9148 -0.2583 0.3105
vn 0.9475 0.2583 0.1885
vn 0.6943 0.7063 0.1381
vn 0.2544 0.9658 0.0506
vn -0.2544 0.9658 -0.0506
vn -0.6943 0.7063 -0.1381
vn -0.9475 0.2583 -0.1885
vn -0.9475 -0.2583 -0.1885
vn -0.6943 -0.7063 -0.1381
vn -0.2544 -0.9658 -0.0506
vn 0.2544 -0.9658 0.0506
vn 0.6943 -0.7063 0.1381
vn 0.9475 -0.2583 0.1885
vn 0.9640 0.2583 0.0632
vn 0.7063 0.7063 0.0463
vn 0.2588 0.9658 0.0170
vn -0.2588 0.9658 -0.0170
vn -0.7063 0.7063 -0.0463
vn -0.9640 0.2583 -0.0632
vn -0.9640 -0.2583 -0.0632
vn -0.7063 -0.7063 -0.0463
vn -0.2588 -0.9658 -0.0170
vn 0.2588 -0.9658 0.0170
vn 0.7063 -0.7063 0.0463
vn 0.9640 -0.2583 0.0632
usemtl None
s off
f 13/1/1 25/2/1 26/3/1 14/4/1
f 14/4/2 26/3/2 27/5/2 15/6/2
f 15/6/3 27/5/3 28/7/3 16/8/3
f 16/8/4 28/7/4 29/9/4 17/10/4
f 17/10/5 29/9/5 30/11/5 18/12/5
f 18/12/6 30/11/6 31/13/6 19/14/6
f 19/15/7 31/16/7 32/17/7 20/18/7
f 20/18/8 32/17/8 33/19/8 21/20/8
f 21/20/9 33/19/9 34/21/9 22/22/9
f 22/22/10 34/21/10 35/23/10 23/24/10
f 23/24/11 35/23/11 36/25/11 24/26/11
f 24/26/12 36/25/12 25/2/12 13/1/12
f 25/2/13 37/27/13 38/28/13 26/3/13
f 26/3/14 38/28/14 39/29/14 27/5/14
f 27/5/15 39/29/15 40/30/15 28/7/15
f 28/7/16 40/30/16 41/31/16 29/9/16
f 29/9/17 41/31/17 42/32/17 30/11/17
f 30/11/18 42/32/18 43/33/18 31/13/18
f 31/16/19 43/34/19 44/35/19 32/17/19
f 32/17/20 44/35/20 45/36/20 33/19/20
f 33/19/21 45/36/21 46/37/21 34/21/21
f 34/21/22 46/37/22 47/38/22 35/23/22
f 35/23/23 47/38/23 48/39/23 36/25/23
f 36/25/24 48/39/24 37/27/24 25/2/24
f 37/27/25 49/40/25 50/41/25 38/28/25
f 38/28/26 50/41/26 51/42/26 39/29/26
f 39/29/27 51/42/27 52/43/27 40/30/27
f 40/30/28 52/43/28 53/44/28 41/31/28
f 41/31/29 53/44/29 54/45/29 42/32/29
f 42/32/30 54/45/30 55/46/30 43/33/30
f 43/34/31 55/47/31 56/48/31 44/35/31
f 44/35/32 56/48/32 57/49/32 45/36/32
f 45/36/33 57/49/33 58/50/33 46/37/33
f 46/37/34 58/50/34 59/51/34 47/38/34
f 47/38/35 59/51/35 60/52/35 48/39/35
f 48/39/36 60/52/36 49/40/36 37/27/36
f 49/40/37 61/53/37 62/54/37 50/41/37
f 50/41/38 62/54/38 63/55/38 51/42/38
f 51/42/39 63/55/39 64/56/39 52/43/39
f 52/43/40 64/56/40 65/57/40 53/44/40
f 53/44/41 65/57/41 66/58/41 54/45/41
f 54/45/42 66/58/42 67/59/42 55/46/42
f 55/47/43 67/60/43 68/61/43 56/48/43
f 56/48/44 68/61/44 69/62/44 57/49/44
f 57/49/45 69/62/45 70/63/45 58/50/45
f 58/50/46 70/63/46 71/64/46 59/51/46
f 59/51/47 71/64/47 72/65/47 60/52/47
f 60/52/48 72/65/48 61/53/48 49/40/48
f 61/53/49 73/66/49 74/67/49 62/54/49
f 62/54/50 74/67/50 75/68/50 63/55/50
f 63/55/51 75/68/51 76/69/51 64/56/51
f 64/56/52 76/69/52 77/70/52 65/57/52
f 65/57/53 77/70/53 78/71/53 66/58/53
f 66/58/54 78/71/54 79/72/54 67/59/54
f 67/60/55 79/73/55 80/74/55 68/61/55
f 68/61/56 80/74/56 81/75/56 69/62/56
f 69/62/57 81/75/57 82/76/57 70/63/57
f 70/63/58 82/76/58 83/77/58 71/64/58
f 71/64/59 83/77/59 84/78/59 72/65/59
f 72/65/60 84/78/60 73/66/60 61/53/60
f 73/66/61 85/79/61 86/80/61 74/67/61
f 74/67/62 86/80/62 87/81/62 75/68/62
f 75/68/63 87/81/63 88/82/63 76/69/63
f 76/69/64 88/82/64 89/83/64 77/70/64
f 77/70/65 89/83/65 90/84/65 78/71/65
f 78/71/66 90/84/66 91/85/66 79/72/66
f 79/73/67 91/86/67 92/87/67 80/74/67
f 80/74/68 92/87/68 93/88/68 81/75/68
f 81/75/69 93/88/69 94/89/69 82/76/69
f 82/76/70 94/89/70 95/90/70 83/77/70
f 83/77/71 95/90/71 96/91/71 84/78/71
f 84/78/72 96/91/72 85/79/72 73/66/72
f 85/79/73 97/92/73 98/93/73 86/80/73
f 86/80/74 98/93/74 99/94/74 87/81/74
f 87/81/75 99/94/75 100/95/75 88/82/75
f 88/82/76 100/95/76 101/96/76 89/83/76
f 89/83/77 101/96/77 102/97/77 90/84/77
f 90/84/78 102/97/78 103/98/78 91/85/78
f 91/86/79 103/99/79 104/100/79 92/87/79
f 92/87/80 104/100/80 105/101/80 93/88/80
f 93/88/81 105/101/81 106/102/81 94/89/81
f 94/89/82 106/102/82 107/103/82 95/90/82
f 95/90/83 107/103/83 108/104/83 96/91/83
f 96/91/84 108/104/84 97/92/84 85/79/84
f 97/92/85 109/105/85 110/106/85 98/93/85
f 98/93/86 110/106/86 111/107/86 99/94/86
f 99/94/87 111/107/87 112/108/87 100/95/87
f 100/95/88 112/108/88 113/109/88 101/96/88
f 101/96/89 113/109/89 114/110/89 102/97/89
f 102/97/90 114/110/90 115/111/90 103/98/90
f 103/99/91 115/112/91 116/113/91 104/100/91
f 104/100/92 116/113/92 117/114/92 105/101/92
f 105/101/93 117/114/93 118/115/93 106/102/93
f 106/102/94 118/115/94 119/116/94 107/103/94
f 107/103/95 119/116/95 120/117/95 108/104/95
f 108/104/96 120/117/96 109/105/96 97/92/96
f 109/105/97 121/118/97 122/119/97 110/106/97
f 110/106/98 122/119/98 123/120/98 111/107/98
f 111/107/99 123/120/99 124/121/99 112/108/99
f 112/108/100 124/121/100 125/122/100 113/109/100
f 113/109/101 125/122/101 126/123/101 114/110/101
f 114/110/102 126/123/102 127/124/102 115/111/102
f 115/112/103 127/125/103 128/126/103 116/113/103
f 116/113/104 128/126/104 129/127/104 117/114/104
f 117/114/105 129/127/105 130/128/105 118/115/105
f 118/115/106 130/128/106 131/129/106 119/116/106
f 119/116/107 131/129/107 132/130/107 120/117/107
f 120/117/108 132/130/108 121/118/108 109/105/108
f 121/118/109 133/131/109 134/132/109 122/119/109
f 122/119/110 134/132/110 135/133/110 123/120/110
f 123/120/111 135/133/111 136/134/111 124/121/111
f 124/121/112 136/134/112 137/135/112 125/122/112
f 125/122/113 137/135/113 138/136/113 126/123/113
f 126/123/114 138/136/114 139/137/114 127/124/114
f 127/125/115 139/138/115 140/139/115 128/126/115
f 128/126/116 140/139/116 141/140/116 129/127/116
f 129/127/117 141/140/117 142/141/117 130/128/117
f 130/128/118 142/141/118 143/142/118 131/129/118
f 131/129/119 143/142/119 144/143/119 132/130/119
f 132/130/120 144/143/120 133/131/120 121/118/120
f 133/131/121 145/144/121 146/145/121 134/132/121
f 134/132/122 146/145/122 147/146/122 135/133/122
f 135/133/123 147/146/123 148/147/123 136/134/123
f 136/134/124 148/147/124 149/148/124 137/135/124
f 137/135/125 149/148/125 150/149/125 138/136/125
f 138/136/126 150/149/126 151/150/126 139/137/126
f 139/138/127 151/151/127 152/152/127 140/139/127
f 140/139/128 152/152/128 153/153/128 141/140/128
f 141/140/129 153/153/129 154/154/129 142/141/129
f 142/141/130 154/154/130 155/155/130 143/142/130
f 143/142/131 155/155/131 156/156/131 144/143/131
f 144/143/132 156/156/132 145/144/132 133/131/132
f 145/144/133 1/157/133 2/158/133 146/145/133
f 146/145/134 2/158/134 3/159/134 147/146/134
f 147/146/135 3/159/135 4/160/135 148/147/135
f 148/147/136 4/160/136 5/161/136 149/148/136
f 149/148/137 5/161/137 6/162/137 150/149/137
f 150/149/138 6/162/138 7/163/138 151/150/138
f 151/151/139 7/164/139 8/165/139 152/152/139
f 152/152/140 8/165/140 9/166/140 153/153/140
f 153/153/141 9/166/141 10/167/141 154/154/141
f 154/154/142 10/167/142 11/168/142 155/155/142
f 155/155/143 11/168/143 12/169/143 156/156/143
f 156/156/144 12/169/144 1/157/144 145/144/144
