# Blender v2.91.2 OBJ File: ''
# www.blender.org
mtllib RandomPart3.mtl
o Torus
v 0.902053 -0.220363 -0.405412
v 1.017538 -0.186870 -0.453247
v 0.656699 -0.095363 -0.414475
v 0.735946 -0.186870 -0.460228
v 0.844199 -0.220363 -0.522728
v 0.952452 -0.186870 -0.585228
v 0.573188 0.029637 -0.479299
v 0.599761 -0.095363 -0.499689
v 0.672358 -0.186870 -0.555394
v 0.771527 -0.220363 -0.631490
v 0.870696 -0.186870 -0.707585
v 0.943293 -0.095363 -0.763290
v 0.508503 0.029637 -0.553058
v 0.532187 -0.095363 -0.576742
v 0.596892 -0.186870 -0.641447
v 0.685280 -0.220363 -0.729835
v 0.773668 -0.186870 -0.818223
v 0.838373 -0.095363 -0.882928
v 0.434745 0.029637 -0.617743
v 0.455134 -0.095363 -0.644315
v 0.510840 -0.186870 -0.716912
v 0.586935 -0.220363 -0.816082
v 0.663030 -0.186870 -0.915251
v 0.718736 -0.095363 -0.987848
v 0.353173 0.029637 -0.672247
v 0.369920 -0.095363 -0.701254
v 0.415673 -0.186870 -0.780501
v 0.478173 -0.220363 -0.888754
v 0.540673 -0.186870 -0.997007
v 0.586427 -0.095363 -1.076254
v 0.263890 0.032029 -0.715286
v 0.278004 -0.095363 -0.746582
v 0.313022 -0.186870 -0.831123
v 0.360857 -0.220363 -0.946608
v 0.408693 -0.186870 -1.062093
v 0.443711 -0.095363 -1.146634
v 0.145397 0.079283 -0.739861
v 0.174648 -0.083720 -0.777810
v 0.204640 -0.186870 -0.867913
v 0.236993 -0.220363 -0.988654
v 0.269345 -0.186870 -1.109395
v 0.293028 -0.095363 -1.197783
v 0.018803 0.155731 -0.747617
v 0.045397 -0.030684 -0.789994
v 0.078985 -0.162139 -0.886601
v 0.103249 -0.210303 -1.012692
v 0.119949 -0.177519 -1.136727
v -0.087747 0.224944 -0.743514
v -0.085204 0.032770 -0.787284
v -0.063496 -0.109959 -0.886402
v -0.051905 -0.164846 -1.014553
v -0.055457 -0.124797 -1.138587
v -0.074772 0.003350 -1.224692
v -0.178745 0.270105 -0.730092
v -0.195610 0.075570 -0.774108
v -0.198867 -0.065229 -0.872294
v -0.207422 -0.118004 -0.999095
v -0.230365 -0.069375 -1.120779
v -0.253815 0.068899 -1.204458
v -0.263612 0.281962 -0.709005
v -0.291161 0.087238 -0.752267
v -0.312893 -0.051332 -0.847853
v -0.340963 -0.101629 -0.971123
v -0.377642 -0.051307 -1.089332
vt 0.562500 0.250000
vt 0.583333 0.250000
vt 0.583333 0.333333
vt 0.562500 0.333333
vt 0.583333 0.083333
vt 0.604167 0.083333
vt 0.604167 0.166667
vt 0.583333 0.166667
vt 0.604167 0.250000
vt 0.604167 0.333333
vt 0.604167 0.000000
vt 0.625000 0.000000
vt 0.625000 0.083333
vt 0.625000 0.166667
vt 0.625000 0.250000
vt 0.625000 0.333333
vt 0.625000 0.416667
vt 0.604167 0.416667
vt 0.645833 0.000000
vt 0.645833 0.083333
vt 0.645833 0.166667
vt 0.645833 0.250000
vt 0.645833 0.333333
vt 0.645833 0.416667
vt 0.666667 0.000000
vt 0.666667 0.083333
vt 0.666667 0.166667
vt 0.666667 0.250000
vt 0.666667 0.333333
vt 0.666667 0.416667
vt 0.687500 0.000000
vt 0.687500 0.083333
vt 0.687500 0.166667
vt 0.687500 0.250000
vt 0.687500 0.333333
vt 0.687500 0.416667
vt 0.708333 0.000000
vt 0.708333 0.083333
vt 0.708333 0.166667
vt 0.708333 0.250000
vt 0.708333 0.333333
vt 0.708333 0.416667
vt 0.729167 0.000000
vt 0.729167 0.083333
vt 0.729167 0.166667
vt 0.729167 0.250000
vt 0.729167 0.333333
vt 0.750000 0.000000
vt 0.750000 0.083333
vt 0.750000 0.166667
vt 0.750000 0.250000
vt 0.750000 0.333333
vt 0.770833 0.000000
vt 0.770833 0.083333
vt 0.770833 0.166667
vt 0.770833 0.250000
vt 0.770833 0.333333
vt 0.770833 0.416667
vt 0.750000 0.416667
vt 0.791667 0.000000
vt 0.791667 0.083333
vt 0.791667 0.166667
vt 0.791667 0.250000
vt 0.791667 0.333333
vn 0.2326 -0.9658 -0.1147
vn -0.5886 -0.7063 0.3933
vn -0.2156 -0.9658 0.1441
vn 0.2156 -0.9658 -0.1441
vn -0.7263 -0.2583 0.6370
vn -0.5322 -0.7063 0.4667
vn -0.1950 -0.9658 0.1710
vn 0.1950 -0.9658 -0.1710
vn 0.5322 -0.7063 -0.4667
vn -0.6370 -0.2583 0.7263
vn -0.4667 -0.7063 0.5322
vn -0.1710 -0.9658 0.1950
vn 0.1710 -0.9658 -0.1950
vn 0.4667 -0.7063 -0.5322
vn -0.5367 -0.2583 0.8033
vn -0.3933 -0.7063 0.5886
vn -0.1441 -0.9658 0.2156
vn 0.1441 -0.9658 -0.2156
vn 0.3933 -0.7063 -0.5886
vn -0.4261 -0.2592 0.8667
vn -0.3131 -0.7063 0.6349
vn -0.1147 -0.9658 0.2326
vn 0.1147 -0.9658 -0.2326
vn 0.3131 -0.7063 -0.6349
vn -0.3005 -0.2635 0.9167
vn -0.2551 -0.6915 0.6758
vn -0.0834 -0.9658 0.2456
vn 0.0834 -0.9658 -0.2456
vn 0.2275 -0.7063 -0.6703
vn -0.2003 -0.2498 0.9474
vn -0.2824 -0.6431 0.7119
vn -0.1720 -0.9463 0.2736
vn -0.0181 -0.9642 -0.2647
vn -0.0998 -0.2281 0.9685
vn -0.2440 -0.5956 0.7654
vn -0.2967 -0.8989 0.3225
vn -0.2700 -0.9199 -0.2844
vn 0.0316 -0.2224 0.9744
vn -0.1137 -0.5725 0.8120
vn -0.2435 -0.8945 0.3748
vn -0.3095 -0.9046 -0.2931
vn -0.2722 -0.5478 -0.7911
vn 0.1957 -0.2358 0.9519
vn 0.1094 -0.5731 0.8121
vn -0.0313 -0.9225 0.3848
vn -0.1843 -0.9239 -0.3353
usemtl None
s off
f 1/1/1 5/2/1 6/3/1 2/4/1
f 3/5/2 8/6/2 9/7/2 4/8/2
f 4/8/3 9/7/3 10/9/3 5/2/3
f 5/2/4 10/9/4 11/10/4 6/3/4
f 7/11/5 13/12/5 14/13/5 8/6/5
f 8/6/6 14/13/6 15/14/6 9/7/6
f 9/7/7 15/14/7 16/15/7 10/9/7
f 10/9/8 16/15/8 17/16/8 11/10/8
f 11/10/9 17/16/9 18/17/9 12/18/9
f 13/12/10 19/19/10 20/20/10 14/13/10
f 14/13/11 20/20/11 21/21/11 15/14/11
f 15/14/12 21/21/12 22/22/12 16/15/12
f 16/15/13 22/22/13 23/23/13 17/16/13
f 17/16/14 23/23/14 24/24/14 18/17/14
f 19/19/15 25/25/15 26/26/15 20/20/15
f 20/20/16 26/26/16 27/27/16 21/21/16
f 21/21/17 27/27/17 28/28/17 22/22/17
f 22/22/18 28/28/18 29/29/18 23/23/18
f 23/23/19 29/29/19 30/30/19 24/24/19
f 25/25/20 31/31/20 32/32/20 26/26/20
f 26/26/21 32/32/21 33/33/21 27/27/21
f 27/27/22 33/33/22 34/34/22 28/28/22
f 28/28/23 34/34/23 35/35/23 29/29/23
f 29/29/24 35/35/24 36/36/24 30/30/24
f 31/31/25 37/37/25 38/38/25 32/32/25
f 32/32/26 38/38/26 39/39/26 33/33/26
f 33/33/27 39/39/27 40/40/27 34/34/27
f 34/34/28 40/40/28 41/41/28 35/35/28
f 35/35/29 41/41/29 42/42/29 36/36/29
f 37/37/30 43/43/30 44/44/30 38/38/30
f 38/38/31 44/44/31 45/45/31 39/39/31
f 39/39/32 45/45/32 46/46/32 40/40/32
f 40/40/33 46/46/33 47/47/33 41/41/33
f 43/43/34 48/48/34 49/49/34 44/44/34
f 44/44/35 49/49/35 50/50/35 45/45/35
f 45/45/36 50/50/36 51/51/36 46/46/36
f 46/46/37 51/51/37 52/52/37 47/47/37
f 48/48/38 54/53/38 55/54/38 49/49/38
f 49/49/39 55/54/39 56/55/39 50/50/39
f 50/50/40 56/55/40 57/56/40 51/51/40
f 51/51/41 57/56/41 58/57/41 52/52/41
f 52/52/42 58/57/42 59/58/42 53/59/42
f 54/53/43 60/60/43 61/61/43 55/54/43
f 55/54/44 61/61/44 62/62/44 56/55/44
f 56/55/45 62/62/45 63/63/45 57/56/45
f 57/56/46 63/63/46 64/64/46 58/57/46
